<svg id="Layer_1" data-name="Layer 1" xmlns="http://www.w3.org/2000/svg" viewBox="0 0 638 473.58"><defs><style>.cls-1{fill:#f36f21;fill-rule:evenodd;}.cls-2{fill:#818285;}.cls-3{fill:none;stroke:#000;stroke-miterlimit:10;stroke-width:1.5px;}.cls-4{font-size:54.65px;font-family:AvantGarde-Medium, ITC Avant Garde Gothic;font-weight:500;}.cls-5{letter-spacing:-0.01em;}.cls-6{letter-spacing:0em;}.cls-7{letter-spacing:-0.03em;}</style></defs><title>Bank of Punjab Logo Vector</title><path class="cls-1" d="M570.68,393c-17.52-.71-28.45,11.53-46.31,9.43-14.17-1.66-20.85-11.25-39.46-9.43-15.81,1.54-26,11.09-39.45,9.43-13.76-1.7-23.37-12.23-42.88-8.58-8.55,1.6-14.94,7.33-24,8.58-18.36,2.53-29-9.44-46.32-10.29-2.55-40.66,12.65-72.68,34.31-94.34,20.24-20.25,51.47-36.87,92.62-34.31C525.34,267.58,572.5,319.91,570.68,393Z" transform="translate(-181 -263.21)"/><path class="cls-1" d="M569,405.84c1.25,10.39-10.25,9.08-16.29,11.15-9.29,3.18-14.08,8.42-27.45,6.86-16.76-2-23.14-13-45.45-8.58-10,2-17.87,10.56-33.45,8.58-14.64-1.86-21.32-11.64-41.17-9.43-8.87,1-17,8.1-27.44,9.43-18.52,2.36-28.84-10.31-42.88-10.29,1.13-3.21-2.56-5.93,0-7.72,13.55,1.39,25.6,10.5,41.16,9.43,12.83-.87,23.39-12.09,42-9.43,11.23,1.61,20.08,8.84,30,9.43,20.42,1.24,27-13.16,49.75-9.43,13.36,2.19,18.75,10.68,36,9.43C547.17,414.31,553.67,406,569,405.84Z" transform="translate(-181 -263.21)"/><path class="cls-1" d="M563,427.28a51,51,0,0,0-3.43,8.58c-7.8,1.1-14.82,7.45-22.3,8.57-20.26,3.06-37.94-13.11-60-7.71-13.54,3.3-20.81,10.54-35.16,6.86-18-4.62-24.84-11.35-42.88-6.86-6.31,1.57-11.27,6.47-18.87,7.71-14.59,2.4-24-4.59-36.88-7.71-.41-3.88-2.74-5.84-3.43-9.44,10.75,3,21,9.49,32.59,9.44,10.79-.06,18.53-6.69,30-9.44,16.2-3.88,30.35,9.32,48,9.44,13.66.09,26.26-10.21,39.45-10.3,12.93-.08,24.65,10,38.59,10.3C542.26,437,549.76,430.6,563,427.28Z" transform="translate(-181 -263.21)"/><path class="cls-1" d="M524.37,477.88c-2.25,2.91-6.2,4.09-8.58,6.86-9.33-4.67-15.32-7.65-24.87-7.72-14-.09-26.7,10.14-39.45,10.3S426.33,477.12,412,477c-9.15-.06-16.05,2.44-24.87,7.72-3.41-1.73-5.64-4.64-9.43-6,14.72-2.77,24.18-11.51,40.31-9.43,11.32,1.46,20.67,9.23,31.73,9.43,12.13.22,21.07-7.65,33.45-9.43C499.54,467,508.91,476.4,524.37,477.88Z" transform="translate(-181 -263.21)"/><path class="cls-1" d="M503.78,490.75c-2.85,3.43-9.53,3-12.86,6-13.07-2.76-22.29,7.42-34.31,8.58-17,1.64-27.42-9.3-45.45-8.58-3.3-2.43-7.88-3.55-12-5.14,12.72-9.58,30.47,4.25,44.6,6C465.91,500.35,482.48,483.05,503.78,490.75Z" transform="translate(-181 -263.21)"/><path class="cls-1" d="M354.55,454.73c.16-1,.86-.48.86,0,24.25,10.94,43.57-11.83,66.9-6,10.48,2.62,15.21,9.19,30.87,8.58,13.39-.52,28.59-13.63,48-8.58,12.11,3.15,15.8,9.22,30.88,8.58a36.06,36.06,0,0,0,14.57-3.43c-1.8,5.33-5.51,10.69-11.14,12-13,3-27.56-8.65-42-9.44-20.82-1.13-28.8,13.67-51.46,8.58-5.89-1.33-12.11-5.86-15.44-6.86-20-6-29.67,3.34-43.74,6.86C366,469.24,360.85,463.37,354.55,454.73Z" transform="translate(-181 -263.21)"/><path class="cls-2" d="M312.72,415.76A50.05,50.05,0,0,0,278,373.61s26.1-10.53,23.47-46.22S277,282.61,277,282.61s-10.3-9.58-43.35-11.74H181.07V493.6h58.12S268.65,497,289,480.43,315.59,439.47,312.72,415.76ZM213,301.41c19.95-1.13,47.64-2.4,55.83,20.55a30.53,30.53,0,0,1,1.75,9.87c.23,18.57-11.22,28.33-28.24,31.37-1.88.33-29.34,2.69-29.34,1.07Zm34.46,162.25c-2.21.39-34.43,3.16-34.43,1.26V391.15c23.42-1.32,57.91-.81,67.52,26.12a36,36,0,0,1,2.05,11.58C282.84,450.64,267.4,460.1,247.43,463.66Z" transform="translate(-181 -263.21)"/><path class="cls-2" d="M720.81,307.27s-13.5-35.68-61.47-36.4H591.73v223H624.3V405.22s43.35,1.92,64.18-8.14,29.46-25.38,29.46-25.38S736.14,343,720.81,307.27ZM685.63,363.9c-5.94,5.26-13.92,7.85-21.57,9.41a123.82,123.82,0,0,1-27.52,2.08c-.72,0-13-.4-13-.82v-74h1.19c20.83,0,49.07-4.16,63.28,15a35,35,0,0,1,6.36,18.12C695.22,344.06,693.84,356.63,685.63,363.9Z" transform="translate(-181 -263.21)"/><line class="cls-3" x1="0.07" y1="251.94" x2="545.95" y2="251.94"/><line class="cls-3" x1="0.07" y1="323.07" x2="545.95" y2="323.07"/><text class="cls-4" transform="translate(0 308.22)">THE <tspan class="cls-5" x="102.41" y="0">B</tspan><tspan class="cls-6" x="133.56" y="0">ANK OF PUN</tspan><tspan class="cls-7" x="453.9" y="0">J</tspan><tspan x="478.87" y="0">AB</tspan></text><path d="M318.55,699.3l-.92,2q-6.81,14.13-9.09,20.15-3.54,9.44-4,11-1.38,4.38-3.6,4.38a3.31,3.31,0,0,1-2.69-1.44,4.26,4.26,0,0,1-1-2.68q0-5.62,14.46-35.53c-1.74-1.31-2.62-2.62-2.62-3.93a3.34,3.34,0,0,1,1.31-2.61,3.74,3.74,0,0,1,2.42-.92,8.62,8.62,0,0,1,2.42.46q10.67-20.28,12.5-25.85c-1.09.62-2.48,1.49-4.19,2.62a4.94,4.94,0,0,1-2.55.92,2.35,2.35,0,0,1-2-1.25,3.27,3.27,0,0,1-.52-1.76c0-2.05,1.77-4.26,5.3-6.61a86.92,86.92,0,0,1,7.92-4.71,21.5,21.5,0,0,0,.72-2.16,9.14,9.14,0,0,1,1.37-3.34,2.78,2.78,0,0,1,2.23-.85c2.05,0,3.07,1.14,3.07,3.4q4.52-1.31,8-2a33.15,33.15,0,0,1,5.89-.65,13.91,13.91,0,0,1,10.73,4.84,15,15,0,0,1,4.12,10.27q0,9.88-8.24,19.76A48.81,48.81,0,0,1,342,695.9a44.28,44.28,0,0,1-18,4A32,32,0,0,1,318.55,699.3Zm18.32-39.91A147.08,147.08,0,0,1,329.8,676q-6,12.3-7.79,16.09a32.94,32.94,0,0,0,5,.66q7.45,0,17.41-6a45.14,45.14,0,0,0,15-14.59q3.35-5.31,3.34-9.43a6.51,6.51,0,0,0-2.52-5.59c-1.68-1.24-4.22-1.87-7.62-1.87a31.28,31.28,0,0,0-7.82,1A38,38,0,0,0,336.87,659.39Z" transform="translate(-181 -263.21)"/><path d="M370.46,715.37a50.67,50.67,0,0,1-4.25,6.42q-4.12,5.1-8.18,5.1a6.09,6.09,0,0,1-5.5-3.34,10,10,0,0,1-1.24-5.1q0-7.26,4.58-16,5.1-9.75,12.3-15,4.71-3.41,9.09-3.41a6.44,6.44,0,0,1,4.58,1.71,4.58,4.58,0,0,1,1.57,3.4,10.91,10.91,0,0,1-1.11,4,4.32,4.32,0,0,1,1,2.42c0,.92-.61,2.42-1.83,4.52a49.43,49.43,0,0,0-3.79,8.5,28.12,28.12,0,0,0-2,9,6.36,6.36,0,0,0,1.63,4.51,12.23,12.23,0,0,0,2.69,1.51,2.79,2.79,0,0,1,1.63,2.75,2.56,2.56,0,0,1-.91,2,3.44,3.44,0,0,1-2.29.85,7.64,7.64,0,0,1-6.09-3.14,9.78,9.78,0,0,1-2.09-6.42C370.2,718.82,370.28,717.38,370.46,715.37Zm8.18-21.52a6.63,6.63,0,0,0-1.7-2.13,3.29,3.29,0,0,0-2-.68q-5,0-10.79,8.7-6.42,9.62-6.41,16.29a4.16,4.16,0,0,0,.62,2.49,2.16,2.16,0,0,0,1.86.85q3.15,0,7.33-6.68a110.19,110.19,0,0,0,5.82-10.79,56.44,56.44,0,0,1,3.34-6.15A9.28,9.28,0,0,1,378.64,693.85Z" transform="translate(-181 -263.21)"/><path d="M416.29,680.57q4.05,0,6.08,1.44a5,5,0,0,1,2,4.38,11.81,11.81,0,0,1-2.88,7.46,19,19,0,0,1-8.24,5.5,15.19,15.19,0,0,1-5,1.11c-1.83,0-2.75-.81-2.75-2.42a2.7,2.7,0,0,1,1.58-2.49q.39-.19,4.44-1.11a9.85,9.85,0,0,0,4.45-2.29,4.29,4.29,0,0,0,1.77-3.27,2.48,2.48,0,0,0-.79-2,3.62,3.62,0,0,0-2.35-.65q-3.79,0-8.38,3.07c-3.53,2.32-5.3,5.06-5.3,8.25q0,3.4,3.47,8.5,3.87,5.57,3.86,9.42a10.2,10.2,0,0,1-5.1,9,12.78,12.78,0,0,1-7.13,2q-6.28,0-9.55-4.51a12.7,12.7,0,0,1-2.29-7.59,13.84,13.84,0,0,1,2.61-8.57c1.14-1.53,2.31-2.29,3.54-2.29,1.08,0,1.63.43,1.63,1.3a3.79,3.79,0,0,1-.59,1.58,13.8,13.8,0,0,0-1.5,6.6,7.26,7.26,0,0,0,2.29,5.43,6.49,6.49,0,0,0,4.64,2,5,5,0,0,0,4-1.7,5.59,5.59,0,0,0,1.18-3.67q0-2.74-3.14-7.13-4.32-6-4.32-10.93,0-6.54,7.13-11.58A25.26,25.26,0,0,1,416.29,680.57Z" transform="translate(-181 -263.21)"/><path d="M451.1,677.34q4,0,6.08,1.44a5,5,0,0,1,2,4.38,11.81,11.81,0,0,1-2.88,7.46,18.92,18.92,0,0,1-8.24,5.49,15,15,0,0,1-5,1.12c-1.83,0-2.75-.81-2.75-2.42a2.71,2.71,0,0,1,1.57-2.49c.26-.13,1.75-.5,4.45-1.11a9.9,9.9,0,0,0,4.45-2.29,4.3,4.3,0,0,0,1.77-3.27,2.51,2.51,0,0,0-.79-2,3.58,3.58,0,0,0-2.35-.66c-2.53,0-5.33,1-8.38,3.08q-5.29,3.47-5.3,8.24,0,3.4,3.47,8.51,3.85,5.57,3.86,9.42a10.2,10.2,0,0,1-5.1,9,12.92,12.92,0,0,1-7.14,2q-6.27,0-9.55-4.52a12.73,12.73,0,0,1-2.29-7.59,13.87,13.87,0,0,1,2.62-8.57c1.13-1.52,2.31-2.29,3.53-2.29s1.64.44,1.64,1.31a3.76,3.76,0,0,1-.59,1.57,13.87,13.87,0,0,0-1.51,6.61,7.3,7.3,0,0,0,2.29,5.43,6.5,6.5,0,0,0,4.65,2,4.93,4.93,0,0,0,4-1.7,5.57,5.57,0,0,0,1.18-3.66q0-2.75-3.14-7.13-4.32-6-4.32-10.93,0-6.54,7.13-11.58A25.16,25.16,0,0,1,451.1,677.34Z" transform="translate(-181 -263.21)"/><path d="M474.09,677.28a2.31,2.31,0,0,1,1.83.85,2.44,2.44,0,0,1,.53,1.44c0,.79-.64,2.09-1.9,3.93a120.52,120.52,0,0,0-9.68,17.33,146.07,146.07,0,0,0-5.43,14.4q-1.05,3.27-3.28,3.27a2.48,2.48,0,0,1-2.09-1,2.77,2.77,0,0,1-.72-1.83q0-2,4.19-13.09a90.65,90.65,0,0,1,10.6-19.36,37.41,37.41,0,0,1,3.53-4.65A3.41,3.41,0,0,1,474.09,677.28ZM486.52,653c2,0,3,1,3,3q0,2.75-2.88,6.08t-5.3,3.21a2.55,2.55,0,0,1-2-.92,3,3,0,0,1-.78-2.09c0-2.1,1.15-4.32,3.46-6.68Q484.49,653,486.52,653Z" transform="translate(-181 -263.21)"/><path d="M499.62,673.28c3.58,0,5.36,2.18,5.36,6.54q0,8.7-8,22-8.78,14.46-16.95,14.46a5.85,5.85,0,0,1-5.56-3.53,9.18,9.18,0,0,1-.92-4.26q0-8.37,5.76-18.19a44.14,44.14,0,0,1,12.63-14.13C494.73,674.26,497.31,673.28,499.62,673.28ZM492.82,698c-1.1-.87-1.64-1.55-1.64-2s.7-1.31,2.09-2.88q5.89-6.6,5.89-10.66a2,2,0,0,0-.33-1.05,1.73,1.73,0,0,0-1.63-1q-2.1,0-6.15,4.05a41.2,41.2,0,0,0-8,10.8q-3.21,6.35-3.21,10.53a3.39,3.39,0,0,0,.59,2,2.58,2.58,0,0,0,2.16,1.18c2.09,0,4.34-1.58,6.74-4.72a20.72,20.72,0,0,0,2.55-4.05A13.8,13.8,0,0,0,492.82,698Z" transform="translate(-181 -263.21)"/><path d="M517.08,691.16c.57-.53,1.11-1,1.64-1.58q13.66-13.33,18.32-13.34c1.7,0,2.55.94,2.55,2.81,0,1.31-.77,2.86-2.29,4.65q-12.51,14.58-12.5,25.71a13.13,13.13,0,0,0,2,6.87,5.1,5.1,0,0,1,.92,2.36,2,2,0,0,1-.79,1.5,2.66,2.66,0,0,1-2,.92q-2.68,0-4.52-3.41a15.86,15.86,0,0,1-1.76-7.78q0-8.83,6.67-19.57-8.89,5.7-16.56,20.16c-1.3,2.31-2.7,3.46-4.18,3.46a2.38,2.38,0,0,1-1.83-.78,3.2,3.2,0,0,1-.92-2.36q0-3.53,8.05-18.51,4.32-8.12,6.8-11.78t4.25-3.6a2.29,2.29,0,0,1,1.64.79,2.89,2.89,0,0,1,.92,2.09c0,1-.64,2.33-1.9,4.12A69.65,69.65,0,0,0,517.08,691.16Z" transform="translate(-181 -263.21)"/><path d="M597.23,673.63q-8.57,16.62-11.91,26.56c-1.3,3.84-2.2,6-2.68,6.41a3.79,3.79,0,0,1-2.81.92,2.92,2.92,0,0,1-2.42-1,3.17,3.17,0,0,1-.79-2q0-3.08,5.89-16.36a234.13,234.13,0,0,1,11.13-21.72,17,17,0,0,1-.92-4.58,4.25,4.25,0,0,1,1.7-3.54,3,3,0,0,1,1.83-.65,6.15,6.15,0,0,1,2.36.65q1-1.69,7.26-12.49,5.63-10.93,6.22-12.83c-1.18.53-2.12,1-2.82,1.38a4.17,4.17,0,0,1-1.76.59,1.7,1.7,0,0,1-1.44-.92,3,3,0,0,1-.46-1.64q0-3.27,4.38-5.75a48.25,48.25,0,0,1,6-3,23.89,23.89,0,0,1,1.37-4,3.1,3.1,0,0,1,3-1.77q2.22,0,3.86,2.49a48.93,48.93,0,0,1,5.85-1.38,33.16,33.16,0,0,1,5.27-.46q7.59,0,11.52,4.32a14.43,14.43,0,0,1,3.73,10q0,9.62-7.53,18.19-7.06,8-18.84,12.24a52,52,0,0,1-17.8,3.27c-1,0-2.53-.07-4.58-.2a52.83,52.83,0,0,0,2.82,8q3.07,6.48,8.76,18.58,1.64,3.21,5.37,9.16a5.59,5.59,0,0,1,1,2.88,3.07,3.07,0,0,1-1.44,2.36,4.76,4.76,0,0,1-2.55,1q-1.63,0-3.47-3.47-.91-1.64-2.29-4.06Q605,692.47,597.23,673.63Zm8-14.13c1.66.08,2.91.13,3.73.13q13.54,0,25.33-9.49a35.45,35.45,0,0,0,8.37-9.68,13.87,13.87,0,0,0,2-7.2,6.92,6.92,0,0,0-2.46-5.79c-1.63-1.29-4.09-1.93-7.36-1.93a25.38,25.38,0,0,0-9,1.7q-1.77.66-5,2.16-2.29,5.24-7.46,15.15T605.21,659.5Z" transform="translate(-181 -263.21)"/><path d="M639,687.93v1.18a4.29,4.29,0,0,0,.72,2.49q1.63,2.42,5.36,2.42,8.19,0,18.91-12.57c1.27-1.43,2.34-2.15,3.21-2.15a1.67,1.67,0,0,1,1.31.72,1.64,1.64,0,0,1,.39,1q0,2.55-6.28,8.63a47.15,47.15,0,0,1-10.47,7.79,21.91,21.91,0,0,1-10.34,3,9.51,9.51,0,0,1-7.72-3.4,10,10,0,0,1-1.9-6.42q0-11.05,10.41-21.65,8.43-8.64,14.72-8.64a4.92,4.92,0,0,1,3.07,1,4.38,4.38,0,0,1,1.71,3.6q0,3.46-3.21,8.5Q652.29,683.94,639,687.93Zm1.44-5.1a26.79,26.79,0,0,0,7.2-3.53,29.16,29.16,0,0,0,7.26-8,5.47,5.47,0,0,0,1-2.81c0-.87-.42-1.31-1.24-1.31-1.14,0-2.75.85-4.85,2.55Q644.17,674.26,640.45,682.83Z" transform="translate(-181 -263.21)"/><path d="M691.65,661.76q5.55-4.71,10-4.71a5.45,5.45,0,0,1,4.51,2.29,7.28,7.28,0,0,1,1.64,4.71q0,5.1-3.34,12.37a51.28,51.28,0,0,1-10.8,15q-5.82,5.76-11.12,5.76a8.63,8.63,0,0,1-3.57-.72,8.23,8.23,0,0,1-2.84-2.16c-.35.61-.57,1-.66,1.18A19.22,19.22,0,0,1,674,698.4a1.63,1.63,0,0,1-1.34.52,2.87,2.87,0,0,1-2.23-1.37,3.11,3.11,0,0,1-.72-2q0-1.83,7.53-18.52a444.5,444.5,0,0,1,24.4-46.32q5.63-9.42,6.87-11.06c.92-1.31,1.77-2,2.55-2a3.19,3.19,0,0,1,2.55,1.44,3.39,3.39,0,0,1,.72,2.16,7.23,7.23,0,0,1-1.24,3.46c-.17.31-1.55,2.56-4.12,6.74Q697.07,649.86,691.65,661.76Zm-11,28.33a3.85,3.85,0,0,0,2.13.65q5.68,0,12-9.88a46.11,46.11,0,0,0,4.64-8.83,18.56,18.56,0,0,0,1.51-5.82,2.73,2.73,0,0,0-.59-1.93,2.44,2.44,0,0,0-1.83-.62q-3,0-7.27,4.12a47.28,47.28,0,0,0-8.37,11.71c-1.31,2.44-2.45,4.74-3.4,6.87l-.85,1.77A7.79,7.79,0,0,0,680.62,690.09Z" transform="translate(-181 -263.21)"/><path d="M735.81,649.26q5.37,0,5.37,6.54,0,8.7-8,22.05-8.77,14.46-16.94,14.46a5.85,5.85,0,0,1-5.57-3.53,9.16,9.16,0,0,1-.91-4.25q0-8.38,5.76-18.19a43.93,43.93,0,0,1,12.62-14.14Q732.35,649.26,735.81,649.26ZM729,674c-1.09-.87-1.64-1.55-1.64-2s.7-1.3,2.1-2.88q5.88-6.6,5.88-10.66a1.94,1.94,0,0,0-.32-1,1.75,1.75,0,0,0-1.64-1q-2.08,0-6.15,4.06a41.32,41.32,0,0,0-8,10.79q-3.21,6.35-3.21,10.54a3.38,3.38,0,0,0,.59,2,2.57,2.57,0,0,0,2.16,1.18c2.1,0,4.34-1.57,6.74-4.71a19.88,19.88,0,0,0,2.55-4.06A12.65,12.65,0,0,0,729,674Z" transform="translate(-181 -263.21)"/><path d="M754.19,666.73A128.29,128.29,0,0,1,769,653.32a62.9,62.9,0,0,1,6.41-4.39,6.9,6.9,0,0,1,2.16-1c.66,0,1.31.48,2,1.44a2.41,2.41,0,0,1,.59,1.44c0,.79-.83,1.85-2.48,3.21q-6.68,5.3-6.68,8c0,1,.57,1.5,1.7,1.5q2.82,0,9.69-4.64a3.85,3.85,0,0,1,2-.79,1.52,1.52,0,0,1,1.05.53,1.75,1.75,0,0,1,.59,1.24c0,1.31-1.84,3.31-5.5,6q-5.76,4.32-10.93,4.32a7.06,7.06,0,0,1-3.86-1.12,3.52,3.52,0,0,1-1.5-3.27,7.09,7.09,0,0,1,1.37-3.73q-5.16,3.67-12.17,12.57a91.67,91.67,0,0,0-8.05,13.54q-1.5,3-3.72,3c-1.62,0-2.42-.76-2.42-2.29s1.26-5.45,3.79-11.91q5.63-14.38,11.78-22.31,3.79-4.91,6.34-4.91a2.61,2.61,0,0,1,1.57.53,2,2,0,0,1,.85,1.63,5.35,5.35,0,0,1-1.3,2.75q-.27.33-3.47,4.38A34.85,34.85,0,0,0,754.19,666.73Z" transform="translate(-181 -263.21)"/><path d="M796.49,663.29c.57-.52,1.12-1,1.64-1.57q13.67-13.34,18.32-13.34c1.7,0,2.55.94,2.55,2.81q0,2-2.29,4.65-12.5,14.58-12.5,25.71a13.14,13.14,0,0,0,2,6.87,5.06,5.06,0,0,1,.91,2.35,2.06,2.06,0,0,1-.78,1.51,2.69,2.69,0,0,1-2,.91q-2.68,0-4.52-3.4A16,16,0,0,1,798,682q0-8.84,6.67-19.57-8.89,5.7-16.55,20.16-2,3.46-4.19,3.46a2.38,2.38,0,0,1-1.83-.78,3.2,3.2,0,0,1-.92-2.36q0-3.52,8.05-18.51,4.32-8.11,6.8-11.78t4.26-3.6a2.29,2.29,0,0,1,1.63.79,2.89,2.89,0,0,1,.92,2.09q0,1.44-1.9,4.12A71.36,71.36,0,0,0,796.49,663.29Z" transform="translate(-181 -263.21)"/></svg>