<?xml version="1.0" encoding="utf-8"?>
<!-- Generator: Adobe Illustrator 28.2.0, SVG Export Plug-In . SVG Version: 6.00 Build 0)  -->
<svg version="1.1" id="Layer_1" xmlns="http://www.w3.org/2000/svg" xmlns:xlink="http://www.w3.org/1999/xlink" x="0px" y="0px"
	 viewBox="0 0 16 16" style="enable-background:new 0 0 16 16;" xml:space="preserve">
<style type="text/css">
	.st0{fill-rule:evenodd;clip-rule:evenodd;fill:#000F66;}
	.st1{fill-rule:evenodd;clip-rule:evenodd;fill:#008AFD;}
	.st2{fill-rule:evenodd;clip-rule:evenodd;fill:#06B544;}
</style>
<path class="st0" d="M4.34,11.39c-1.66-0.02-3.45-0.42-3.68-2.36C0.46,7.35,1.95,5.31,3,4.09c0.73-0.85,1.46-1.15,2.14-1.05
	c-0.25,0.06-0.5,0.25-0.75,0.59C1.4,7.68,2.12,8.73,4.3,8.95C4.47,8.98,4.62,8.99,4.71,9c2.57,0.21,10.61-0.21,11.09,3.44
	C13.68,10.37,10.47,11.46,4.34,11.39L4.34,11.39z"/>
<path class="st1" d="M8.05,8.98C7.11,8.63,5.8,5.94,5.06,5.44c-0.81,1.35-1.2,1.75-1.68,3.25c0.14-0.76,0.73-1.83,1.66-3.23
	c0.06-0.1,0.14-0.19,0.21-0.29c1.04-1.41,2.08-0.15,2.9,1.2l0,0c0.02,0.04,0.04,0.07,0.06,0.1c0.16,0.27,0.31,0.53,0.45,0.78
	c0.12,0.21,0.23,0.4,0.33,0.57c0.38,0.63-0.24,1.4-0.93,1.16C8.07,8.99,8.06,8.99,8.05,8.98L8.05,8.98z"/>
<path class="st2" d="M8.17,6.37c-0.83-1.36-1.86-2.61-2.9-1.2c-0.07,0.1-0.14,0.19-0.21,0.29c-0.93,1.4-1.52,2.47-1.66,3.23
	C3.38,8.71,3.37,8.73,3.37,8.75c0,0,0.01,0,0.01,0c0,0.01,0,0.02,0,0.02c-1.39-0.46-1.5-1.75,1.01-5.14
	c0.25-0.34,0.51-0.53,0.75-0.59C6.51,3.23,7.58,5.16,8.17,6.37L8.17,6.37z"/>
<path class="st0" d="M8.05,8.98C7.11,8.63,5.8,5.94,5.06,5.44c-0.81,1.35-1.2,1.75-1.68,3.25c0.14-0.76,0.73-1.83,1.66-3.23
	c0.06-0.1,0.14-0.19,0.21-0.29c1.04-1.41,2.08-0.15,2.9,1.2l0,0c0.02,0.04,0.04,0.07,0.06,0.1c0.16,0.27,0.31,0.53,0.45,0.78
	c0.12,0.21,0.23,0.4,0.33,0.57c0.38,0.63-0.24,1.4-0.93,1.16C8.07,8.99,8.06,8.99,8.05,8.98L8.05,8.98z"/>
</svg>
